<svg xmlns="http://www.w3.org/2000/svg" xmlns:xlink="http://www.w3.org/1999/xlink" width="241" zoomAndPan="magnify" viewBox="0 0 180.75 185.249993" height="247" preserveAspectRatio="xMidYMid meet" version="1.2"><defs><clipPath id="934fdbc8da"><path d="M 12.121094 11.082031 L 168.636719 11.082031 L 168.636719 173 L 12.121094 173 Z M 12.121094 11.082031 "/></clipPath><clipPath id="4a1eb15b24"><path d="M 97.90625 15.976562 L 111.960938 45.800781 C 116.839844 56.15625 125.03125 64.589844 135.242188 69.769531 L 163.273438 83.996094 C 166.285156 85.523438 168.179688 88.613281 168.179688 91.988281 C 168.179688 95.363281 166.285156 98.453125 163.273438 99.980469 L 135.242188 114.203125 C 125.03125 119.382812 116.839844 127.816406 111.960938 138.171875 L 97.90625 168 C 96.535156 170.914062 93.601562 172.773438 90.378906 172.773438 C 87.15625 172.773438 84.222656 170.914062 82.851562 168 L 68.796875 138.171875 C 63.917969 127.816406 55.726562 119.382812 45.519531 114.203125 L 17.484375 99.980469 C 14.472656 98.453125 12.578125 95.363281 12.578125 91.988281 C 12.578125 88.613281 14.472656 85.523438 17.484375 83.996094 L 45.519531 69.769531 C 55.726562 64.589844 63.917969 56.15625 68.796875 45.800781 L 82.851562 15.976562 C 84.222656 13.0625 87.15625 11.203125 90.378906 11.203125 C 93.601562 11.203125 96.535156 13.0625 97.90625 15.976562 Z M 97.90625 15.976562 "/></clipPath><clipPath id="2d536869f4"><path d="M 12 11 L 168 11 L 168 173 L 12 173 Z M 12 11 "/></clipPath><clipPath id="5421c16f4c"><path d="M 97.632812 15.957031 L 111.667969 45.746094 C 116.542969 56.089844 124.722656 64.515625 134.921875 69.6875 L 162.921875 83.894531 C 165.925781 85.421875 167.820312 88.507812 167.820312 91.878906 C 167.820312 95.25 165.925781 98.335938 162.921875 99.859375 L 134.921875 114.066406 C 124.722656 119.242188 116.542969 127.664062 111.667969 138.007812 L 97.632812 167.796875 C 96.261719 170.710938 93.332031 172.566406 90.113281 172.566406 C 86.894531 172.566406 83.964844 170.710938 82.59375 167.796875 L 68.554688 138.007812 C 63.683594 127.664062 55.5 119.242188 45.304688 114.066406 L 17.304688 99.859375 C 14.296875 98.335938 12.402344 95.25 12.402344 91.878906 C 12.402344 88.507812 14.296875 85.421875 17.304688 83.894531 L 45.304688 69.6875 C 55.5 64.515625 63.683594 56.089844 68.554688 45.746094 L 82.59375 15.957031 C 83.964844 13.046875 86.894531 11.1875 90.113281 11.1875 C 93.332031 11.1875 96.261719 13.046875 97.632812 15.957031 Z M 97.632812 15.957031 "/></clipPath><clipPath id="a81f975049"><path d="M 66.53125 68.097656 L 113.90625 68.097656 L 113.90625 115.65625 L 66.53125 115.65625 Z M 66.53125 68.097656 "/></clipPath><clipPath id="bf7450f20c"><path d="M 94.332031 68.636719 C 97.050781 69.117188 99.667969 70.066406 102.0625 71.449219 C 104.453125 72.832031 106.585938 74.621094 108.363281 76.738281 C 110.140625 78.855469 111.53125 81.265625 112.476562 83.863281 C 113.421875 86.457031 113.90625 89.199219 113.90625 91.964844 C 113.90625 94.726562 113.421875 97.46875 112.476562 100.066406 C 111.53125 102.660156 110.140625 105.074219 108.363281 107.191406 C 106.585938 109.304688 104.453125 111.097656 102.0625 112.476562 C 99.667969 113.859375 97.050781 114.8125 94.332031 115.292969 C 91.609375 115.769531 88.824219 115.769531 86.105469 115.292969 C 83.382812 114.8125 80.765625 113.859375 78.375 112.476562 C 75.980469 111.097656 73.847656 109.304688 72.070312 107.191406 C 70.296875 105.074219 68.902344 102.660156 67.957031 100.066406 C 67.011719 97.46875 66.53125 94.726562 66.53125 91.964844 C 66.53125 89.199219 67.011719 86.457031 67.957031 83.863281 C 68.902344 81.265625 70.296875 78.855469 72.070312 76.738281 C 73.847656 74.621094 75.980469 72.832031 78.375 71.449219 C 80.765625 70.066406 83.382812 69.117188 86.105469 68.636719 C 88.824219 68.15625 91.609375 68.15625 94.332031 68.636719 Z M 94.332031 68.636719 "/></clipPath></defs><g id="c36b6cadbf"><g clip-rule="nonzero" clip-path="url(#934fdbc8da)"><g clip-rule="nonzero" clip-path="url(#4a1eb15b24)"><path style=" stroke:none;fill-rule:nonzero;fill:#ffffff;fill-opacity:1;" d="M 1.734375 0 L 179.023438 0 L 179.023438 184.214844 L 1.734375 184.214844 Z M 1.734375 0 "/></g></g><g clip-rule="nonzero" clip-path="url(#2d536869f4)"><g clip-rule="nonzero" clip-path="url(#5421c16f4c)"><path style="fill:none;stroke-width:8;stroke-linecap:butt;stroke-linejoin:miter;stroke:#000000;stroke-opacity:1;stroke-miterlimit:4;" d="M 128.745063 21.386602 L 147.555849 61.31175 C 154.089626 75.175085 165.05255 86.467839 178.722175 93.399507 L 216.249511 112.440651 C 220.275532 114.487691 222.8147 118.623656 222.8147 123.141805 C 222.8147 127.659954 220.275532 131.795918 216.249511 133.837724 L 178.722175 152.878867 C 165.05255 159.81577 154.089626 171.103289 147.555849 184.966624 L 128.745063 224.891772 C 126.907438 228.797379 122.980889 231.284193 118.666921 231.284193 C 114.352953 231.284193 110.426404 228.797379 108.588779 224.891772 L 89.772757 184.966624 C 83.244216 171.103289 72.276056 159.81577 58.611666 152.878867 L 21.084331 133.837724 C 17.053074 131.795918 14.513906 127.659954 14.513906 123.141805 C 14.513906 118.623656 17.053074 114.487691 21.084331 112.440651 L 58.611666 93.399507 C 72.276056 86.467839 83.244216 75.175085 89.772757 61.31175 L 108.588779 21.386602 C 110.426404 17.486231 114.352953 14.994181 118.666921 14.994181 C 122.980889 14.994181 126.907438 17.486231 128.745063 21.386602 Z M 128.745063 21.386602 " transform="matrix(0.746123,0,0,0.746123,1.573188,-0.000000000000010615)"/></g></g><g clip-rule="nonzero" clip-path="url(#a81f975049)"><g clip-rule="nonzero" clip-path="url(#bf7450f20c)"><path style=" stroke:none;fill-rule:nonzero;fill:#000000;fill-opacity:1;" d="M 66.53125 67.910156 L 113.90625 67.910156 L 113.90625 116.027344 L 66.53125 116.027344 Z M 66.53125 67.910156 "/></g></g><path style="fill:none;stroke-width:4;stroke-linecap:butt;stroke-linejoin:miter;stroke:#ffffff;stroke-opacity:1;stroke-miterlimit:4;" d="M 0.000607592 2.000594 L 188.787903 2.000594 " transform="matrix(0.746976,0,0,0.746976,19.159702,90.493886)"/></g></svg>